<svg width="145" height="20" viewBox="0 0 145 20" fill="none" xmlns="http://www.w3.org/2000/svg">
<path d="M2.22206 4.33131H5.26458L7.18468 12.1712H7.32142L11.8282 4.33131H14.8707L12.9336 16H10.5406L11.8054 8.4051H11.7029L7.44107 15.943H5.80586L4.05099 8.37661H3.95414L2.67787 16H0.28488L2.22206 4.33131ZM15.8543 16H13.2106L19.176 4.33131H22.3553L24.4406 16H21.7969L20.3782 6.99779H20.287L15.8543 16ZM16.4583 11.4134H22.7028L22.3724 13.3392H16.1278L16.4583 11.4134ZM24.447 6.36536L24.7889 4.33131H34.3723L34.0304 6.36536H30.458L28.8627 16H26.4241L28.0194 6.36536H24.447ZM43.9008 8.41649H41.4395C41.447 8.08983 41.4053 7.80115 41.3141 7.55046C41.2229 7.29596 41.0862 7.07946 40.9039 6.90093C40.7254 6.72241 40.5069 6.58756 40.2487 6.4964C39.9904 6.40144 39.6998 6.35396 39.3769 6.35396C38.754 6.35396 38.1823 6.5097 37.6619 6.82116C37.1416 7.13263 36.7028 7.58464 36.3458 8.17719C35.9887 8.76595 35.7418 9.47815 35.6051 10.3138C35.4722 11.1191 35.4798 11.7933 35.6279 12.3364C35.776 12.8796 36.0381 13.2898 36.4142 13.5671C36.794 13.8406 37.2669 13.9774 37.8329 13.9774C38.1823 13.9774 38.5147 13.9337 38.8299 13.8463C39.1452 13.7551 39.432 13.626 39.6903 13.4589C39.9524 13.2879 40.1803 13.0809 40.374 12.8378C40.5715 12.5947 40.7254 12.3193 40.8355 12.0117H43.314C43.1582 12.5473 42.9151 13.0638 42.5847 13.5614C42.258 14.059 41.8535 14.5034 41.3711 14.8947C40.8887 15.2821 40.3398 15.5898 39.7245 15.8177C39.1091 16.0456 38.4349 16.1595 37.7018 16.1595C36.6421 16.1595 35.7324 15.9164 34.9727 15.4302C34.2168 14.944 33.6717 14.2432 33.3375 13.3278C33.0032 12.4124 32.9405 11.309 33.1494 10.0175C33.3584 8.76784 33.7667 7.70809 34.3744 6.83826C34.986 5.96462 35.7286 5.3018 36.6022 4.84979C37.4796 4.39778 38.4178 4.17178 39.4168 4.17178C40.1119 4.17178 40.7405 4.26674 41.3027 4.45666C41.8649 4.64658 42.3435 4.92386 42.7385 5.28851C43.1373 5.64936 43.4374 6.09187 43.6387 6.61605C43.84 7.14023 43.9274 7.74038 43.9008 8.41649ZM43.299 16L45.2362 4.33131H47.7033L46.9056 9.14579H51.9138L52.7115 4.33131H55.1728L53.2356 16H50.7743L51.5719 11.1798H46.5638L45.7661 16H43.299Z" fill="#292725"/>
<path d="M57.2849 16L59.2221 4.33131H63.8257C64.707 4.33131 65.4306 4.50034 65.9965 4.8384C66.5663 5.17266 66.9651 5.63796 67.193 6.23431C67.4247 6.82686 67.4779 7.51057 67.3525 8.28545C67.2234 9.06412 66.9423 9.74973 66.5093 10.3423C66.0801 10.931 65.5217 11.3906 64.8342 11.7211C64.1467 12.0516 63.3528 12.2168 62.4526 12.2168H59.5183L59.8431 10.2397H62.3785C62.8571 10.2397 63.2655 10.1581 63.6035 9.99473C63.9454 9.8276 64.217 9.5978 64.4183 9.30532C64.6196 9.00904 64.7506 8.66909 64.8114 8.28545C64.876 7.89421 64.8551 7.55426 64.7487 7.26558C64.6424 6.9769 64.4468 6.75279 64.1619 6.59326C63.8808 6.42993 63.5029 6.34826 63.0281 6.34826H61.3644L59.7519 16H57.2849ZM66.5499 16L68.4871 4.33131H70.9542L69.3588 13.966H74.3613L74.0195 16H66.5499ZM76.8391 16H74.1954L80.1608 4.33131H83.3401L85.4254 16H82.7817L81.363 6.99779H81.2718L76.8391 16ZM77.443 11.4134H83.6876L83.3572 13.3392H77.1126L77.443 11.4134ZM97.4039 4.33131L95.4667 16H93.3358L89.4899 8.65579H89.3988L88.1738 16H85.7067L87.6439 4.33131H89.809L93.6378 11.6698H93.7347L94.9482 4.33131H97.4039ZM108.079 4.33131L106.142 16H104.011L100.165 8.65579H100.074L98.849 16H96.3819L98.3191 4.33131H100.484L104.313 11.6698H104.41L105.623 4.33131H108.079ZM107.057 16L108.994 4.33131H116.857L116.515 6.36536H111.12L110.664 9.14579H115.655L115.313 11.1798H110.322L109.866 13.966H115.284L114.943 16H107.057ZM115.758 16L117.695 4.33131H122.299C123.18 4.33131 123.906 4.48705 124.475 4.79852C125.049 5.10998 125.452 5.5525 125.683 6.12606C125.919 6.69582 125.974 7.36813 125.849 8.14301C125.719 8.91788 125.44 9.5826 125.011 10.1372C124.586 10.6917 124.031 11.1191 123.347 11.4191C122.667 11.7154 121.879 11.8635 120.983 11.8635H117.9L118.242 9.88078H120.92C121.391 9.88078 121.794 9.8162 122.128 9.68706C122.462 9.55791 122.726 9.36419 122.92 9.1059C123.118 8.84761 123.247 8.52665 123.307 8.14301C123.372 7.75177 123.349 7.42511 123.239 7.16302C123.129 6.89713 122.929 6.69582 122.641 6.55907C122.352 6.41853 121.972 6.34826 121.501 6.34826H119.838L118.225 16H115.758ZM122.937 10.6898L124.96 16H122.236L120.276 10.6898H122.937Z" fill="#F97316"/>
<g clip-path="url(#clip0_1_20)">
<path d="M140.692 9.36752C139.99 13.5837 133.666 16.8637 133.666 16.8637C133.666 16.8637 128.747 11.7113 129.449 7.49508C129.697 6.00415 130.528 4.67292 131.758 3.79424C132.988 2.91557 134.516 2.56143 136.007 2.80973C137.498 3.05803 138.829 3.88843 139.708 5.11826C140.586 6.34808 140.941 7.87658 140.692 9.36752Z" stroke="#292725" stroke-width="1.34976" stroke-linecap="round" stroke-linejoin="round"/>
<path d="M135.656 4.9178C134.961 4.80207 134.247 4.895 133.605 5.18484C132.963 5.47469 132.421 5.94842 132.049 6.54613C131.676 7.14385 131.489 7.83871 131.511 8.54283C131.533 9.24696 131.763 9.92873 132.173 10.5019C132.582 11.0751 133.152 11.514 133.811 11.7631C134.47 12.0122 135.188 12.0602 135.875 11.9012C136.561 11.7422 137.185 11.3833 137.667 10.8698C138.149 10.3563 138.468 9.71132 138.584 9.01642C138.738 8.08472 138.517 7.12993 137.968 6.36153C137.419 5.59314 136.587 5.07392 135.656 4.9178ZM137.649 9.99184C137.135 10.2312 136.564 10.3208 136.002 10.2503C135.439 10.1798 134.908 9.95222 134.469 9.59354L135.182 8.72754L137.986 9.19452C137.913 9.47526 137.799 9.74385 137.649 9.99184ZM134.274 5.52482C134.554 5.44784 134.843 5.41181 135.133 5.41785C135.597 5.74329 135.96 6.19302 136.18 6.71541C136.4 7.23779 136.469 7.81165 136.377 8.3711L135.272 8.18701L134.274 5.52482ZM138.076 8.65405L136.919 8.46129C137.001 7.95982 136.974 7.44666 136.842 6.95616C136.709 6.46565 136.473 6.00912 136.15 5.6171C136.754 5.84995 137.268 6.27083 137.614 6.81764C137.961 7.36445 138.123 8.00824 138.076 8.65405ZM133.761 5.71784L134.173 6.81584C133.698 6.99564 133.266 7.27488 132.908 7.63487C132.549 7.99486 132.272 8.42728 132.094 8.9032C131.993 8.26357 132.1 7.60828 132.4 7.0345C132.701 6.46072 133.178 5.99901 133.761 5.71784ZM132.43 9.88134C132.48 9.31706 132.688 8.77832 133.03 8.3269C133.373 7.87548 133.835 7.52966 134.365 7.32909L134.759 8.37929L132.953 10.5739C132.746 10.3692 132.57 10.136 132.43 9.88134ZM134.576 11.4042C134.145 11.333 133.736 11.1687 133.375 10.9227L134.121 10.0168C134.514 10.3378 134.971 10.5714 135.461 10.702C135.951 10.8326 136.464 10.8571 136.964 10.774C136.634 11.0422 136.25 11.2371 135.838 11.3457C135.426 11.4544 134.996 11.4743 134.576 11.4042Z" fill="#F97316"/>
</g>
<defs>
<clipPath id="clip0_1_20">
<rect width="17.097" height="17.097" fill="white" transform="translate(127.809) rotate(9.45528)"/>
</clipPath>
</defs>
</svg>
