<svg width="20" height="20" viewBox="0 0 20 20" fill="none" xmlns="http://www.w3.org/2000/svg">
<rect width="20" height="20" fill="white"/>
<path d="M15.3116 9.63524C14.6096 13.8514 8.28557 17.1314 8.28557 17.1314C8.28557 17.1314 3.36658 11.979 4.06858 7.7628C4.31658 6.27187 5.14757 4.94064 6.37757 4.06196C7.60757 3.18329 9.13557 2.82915 10.6266 3.07745C12.1176 3.32575 13.4486 4.15615 14.3276 5.38598C15.2056 6.6158 15.5606 8.1443 15.3116 9.63524Z" stroke="#292725" stroke-width="1.34976" stroke-linecap="round" stroke-linejoin="round"/>
<path d="M10.2756 5.18553C9.58057 5.0698 8.86656 5.16273 8.22456 5.45257C7.58256 5.74242 7.04056 6.21615 6.66856 6.81386C6.29556 7.41158 6.10857 8.10644 6.13057 8.81056C6.15257 9.51469 6.38257 10.1965 6.79257 10.7696C7.20157 11.3428 7.77157 11.7817 8.43057 12.0308C9.08957 12.2799 9.80757 12.3279 10.4946 12.1689C11.1806 12.0099 11.8046 11.651 12.2866 11.1375C12.7686 10.624 13.0876 9.97905 13.2036 9.28415C13.3576 8.35245 13.1366 7.39766 12.5876 6.62926C12.0386 5.86087 11.2066 5.34165 10.2756 5.18553ZM12.2686 10.2596C11.7546 10.4989 11.1836 10.5885 10.6216 10.518C10.0586 10.4475 9.52756 10.2199 9.08856 9.86127L9.80158 8.99527L12.6056 9.46224C12.5326 9.74298 12.4186 10.0116 12.2686 10.2596ZM8.89357 5.79255C9.17357 5.71557 9.46256 5.67954 9.75256 5.68558C10.2166 6.01102 10.5796 6.46075 10.7996 6.98314C11.0196 7.50552 11.0886 8.07938 10.9966 8.63883L9.89157 8.45474L8.89357 5.79255ZM12.6956 8.92178L11.5386 8.72902C11.6206 8.22755 11.5936 7.71439 11.4616 7.22389C11.3286 6.73338 11.0926 6.27684 10.7696 5.88482C11.3736 6.11767 11.8876 6.53856 12.2336 7.08537C12.5806 7.63218 12.7426 8.27597 12.6956 8.92178ZM8.38057 5.98557L8.79257 7.08356C8.31757 7.26337 7.88557 7.54261 7.52757 7.9026C7.16857 8.26259 6.89156 8.69501 6.71356 9.17093C6.61256 8.5313 6.71956 7.87601 7.01956 7.30223C7.32056 6.72845 7.79757 6.26674 8.38057 5.98557ZM7.04956 10.1491C7.09956 9.58479 7.30757 9.04604 7.64957 8.59462C7.99257 8.1432 8.45457 7.79739 8.98457 7.59682L9.37857 8.64701L7.57257 10.8416C7.36557 10.6369 7.18956 10.4037 7.04956 10.1491ZM9.19557 11.6719C8.76457 11.6007 8.35557 11.4364 7.99457 11.1904L8.74057 10.2845C9.13357 10.6055 9.59057 10.8391 10.0806 10.9697C10.5706 11.1003 11.0836 11.1248 11.5836 11.0417C11.2536 11.3099 10.8696 11.5048 10.4576 11.6134C10.0456 11.7221 9.61557 11.742 9.19557 11.6719Z" fill="#F97316"/>
</svg>
